<?xml version="1.0" encoding="utf-8"?>
<!-- Generator: Adobe Illustrator 16.0.0, SVG Export Plug-In . SVG Version: 6.00 Build 0)  -->
<!DOCTYPE svg PUBLIC "-//W3C//DTD SVG 1.1//EN" "http://www.w3.org/Graphics/SVG/1.1/DTD/svg11.dtd">
<svg version="1.1" id="Layer_1" xmlns="http://www.w3.org/2000/svg" xmlns:xlink="http://www.w3.org/1999/xlink" x="0px" y="0px"
	 width="13.871px" height="20.099px" viewBox="5.097 2.041 13.871 20.099" enable-background="new 5.097 2.041 13.871 20.099"
	 xml:space="preserve">
<path d="M18.321,6.061c1.015,2.18,0.783,4.753-0.33,6.842c-0.943,1.698-2.298,3.137-3.45,4.715
	c-0.498,0.702-1.001,1.457-1.373,2.271c-0.132,0.272-0.22,0.551-0.32,0.834c-0.101,0.279-0.191,0.563-0.284,0.844
	c-0.088,0.261-0.196,0.573-0.529,0.573l0,0c-0.391,0-0.501-0.442-0.58-0.744c-0.24-0.732-0.482-1.437-0.853-2.11
	c-0.421-0.797-0.952-1.527-1.495-2.242L18.321,6.061 M9.148,8.492l-3.311,3.939c0.611,1.297,1.524,2.405,2.397,3.508
	c0.211,0.252,0.422,0.511,0.621,0.781l4.181-4.964l-0.039,0.011c-1.464,0.502-3.088-0.241-3.669-1.688
	c-0.08-0.171-0.141-0.372-0.181-0.572c-0.052-0.373-0.061-0.644,0-1.005v-0.01 M6.6,4.674l-0.01,0.01
	c-1.625,2.06-1.905,4.924-0.934,7.345l4.002-4.762L9.607,7.215L6.6,4.674 M14.264,2.402l-3.231,3.829l0.04-0.01
	c1.345-0.462,2.847,0.12,3.53,1.346c0.148,0.282,0.271,0.583,0.311,0.885c0.059,0.381,0.078,0.653,0.012,1.024v0.009l3.208-3.82
	c-0.841-1.527-2.218-2.693-3.859-3.255L14.264,2.402 M9.918,6.955l3.921-4.673l-0.041-0.011c-0.581-0.15-1.174-0.23-1.765-0.23
	c-1.976,0-3.841,0.854-5.165,2.321l-0.017,0.01L9.918,6.955z"/>
</svg>
