<?xml version="1.0" encoding="utf-8"?>
<!-- Generator: Adobe Illustrator 16.0.0, SVG Export Plug-In . SVG Version: 6.00 Build 0)  -->
<!DOCTYPE svg PUBLIC "-//W3C//DTD SVG 1.1//EN" "http://www.w3.org/Graphics/SVG/1.1/DTD/svg11.dtd">
<svg version="1.1" id="Layer_1" xmlns:sketch="http://www.bohemiancoding.com/sketch/ns"
	 xmlns="http://www.w3.org/2000/svg" xmlns:xlink="http://www.w3.org/1999/xlink" x="0px" y="0px" width="32px" height="32px"
	 viewBox="0 0 32 32" enable-background="new 0 0 32 32" xml:space="preserve">
<title></title>
<desc></desc>
<g id="Page-1">
	<g id="icon-111-search">
		<path id="search" fill="#303132" d="M18.596,19.225c-1.015,0.729-2.254,1.159-3.593,1.159c-3.422,0-6.197-2.805-6.197-6.264
			c0-3.46,2.774-6.265,6.197-6.265S21.2,10.66,21.2,14.12c0,1.729-0.693,3.296-1.815,4.428l4.373,4.421
			c0.2,0.203,0.195,0.528-0.006,0.731c-0.202,0.205-0.525,0.206-0.724,0.006L18.596,19.225L18.596,19.225z M15.002,19.646
			c3.021,0,5.468-2.474,5.468-5.527c0-3.053-2.447-5.527-5.468-5.527c-3.02,0-5.468,2.475-5.468,5.527
			C9.534,17.173,11.983,19.646,15.002,19.646L15.002,19.646z"/>
	</g>
</g>
</svg>
